<svg width="491" height="605" viewBox="0 0 491 605" fill="none" xmlns="http://www.w3.org/2000/svg">
<path d="M32 43C32 19.2517 51.2518 0 75 0H328L491 157.5V562C491 585.748 471.748 605 448 605H75C51.2517 605 32 585.748 32 562V43Z" fill="white"/>
<path d="M32 562V43C32 19.2518 51.2518 0 75 0H328L491 157.5V562C491 585.748 471.748 605 448 605V582C459.046 582 468 573.046 468 562V167.259L318.703 23H75C63.9543 23 55 31.9543 55 43V562C55 573.046 63.9543 582 75 582V605L73.8906 604.986C50.6551 604.398 32 585.377 32 562ZM448 582V605H75V582H448Z" fill="#272727"/>
<path d="M356.929 172C334.877 172 317 154.22 317 132.287L317 21L395 96.5L473 172L356.929 172Z" fill="white"/>
<path d="M308.5 128.605V7H331.5V128.605L331.511 129.428C331.948 146.635 346.08 160.5 363.512 160.5H490V183.5H363.512C333.396 183.5 308.886 159.334 308.505 129.315L308.5 128.605Z" fill="#272727"/>
<rect y="371" width="384" height="171" rx="18" fill="#FF2116"/>
<path d="M265.506 411.578V504H249.573V411.578H265.506ZM303.211 452.013V464.645H261.443V452.013H303.211ZM308.479 411.578V424.273H261.443V411.578H308.479Z" fill="white"/>
<path d="M191.492 504H171.751L171.878 491.368H191.492C197.205 491.368 201.987 490.12 205.838 487.623C209.731 485.126 212.651 481.55 214.598 476.896C216.587 472.241 217.581 466.697 217.581 460.265V455.25C217.581 450.257 217.01 445.834 215.867 441.983C214.767 438.132 213.117 434.895 210.916 432.271C208.758 429.648 206.092 427.659 202.918 426.305C199.786 424.951 196.168 424.273 192.063 424.273H171.37V411.578H192.063C198.2 411.578 203.807 412.615 208.885 414.688C213.963 416.72 218.343 419.661 222.024 423.512C225.748 427.363 228.605 431.975 230.594 437.35C232.583 442.724 233.577 448.733 233.577 455.377V460.265C233.577 466.909 232.583 472.918 230.594 478.292C228.605 483.666 225.748 488.279 222.024 492.13C218.3 495.938 213.857 498.88 208.694 500.953C203.574 502.984 197.84 504 191.492 504ZM180.574 411.578V504H164.642V411.578H180.574Z" fill="white"/>
<path d="M116.717 469.532H92.6592V456.9H116.717C120.906 456.9 124.292 456.223 126.873 454.869C129.454 453.515 131.338 451.653 132.522 449.283C133.75 446.871 134.363 444.12 134.363 441.031C134.363 438.111 133.75 435.382 132.522 432.843C131.338 430.261 129.454 428.188 126.873 426.622C124.292 425.056 120.906 424.273 116.717 424.273H97.5469V504H81.6143V411.578H116.717C123.868 411.578 129.941 412.848 134.935 415.387C139.97 417.883 143.8 421.354 146.424 425.797C149.048 430.198 150.359 435.234 150.359 440.904C150.359 446.871 149.048 451.992 146.424 456.266C143.8 460.54 139.97 463.819 134.935 466.104C129.941 468.39 123.868 469.532 116.717 469.532Z" fill="white"/>
<path fill-rule="evenodd" clip-rule="evenodd" d="M244.142 115.017C253.195 114.627 262.317 121.06 265.959 133.828L266.218 134.78C268.772 144.698 267.838 157.09 265.725 169.345C263.601 181.669 260.191 194.323 257.507 204.819C260.259 210.775 265.683 219.129 271.826 227.4C277.842 235.499 284.376 243.287 289.429 248.377C324.122 243.165 344.652 243.671 358.567 250.315L359.029 250.54C368.655 255.333 372.904 263.742 371.842 271.626C370.779 279.504 364.488 286.095 354.778 287.233L354.312 287.282C346.62 288.037 337.028 288.038 325.343 284.46C313.935 280.968 300.684 274.11 285.328 261.453C276.474 262.789 254.012 267.357 227.27 276.602C221.87 285.318 215.444 295.552 208.768 304.946C202.111 314.315 195.059 323.069 188.4 328.647L187.757 329.176C176.704 338.125 166.632 341.442 158.411 340.953C150.172 340.463 143.99 336.123 141.216 330.32L141.154 330.193L141.106 330.062C139.244 324.994 139.789 319.998 142.318 315.168C144.784 310.46 149.116 305.921 154.829 301.4C166.1 292.479 183.636 282.944 205.867 271.878C213.141 257.261 228.821 223.185 237.467 195.516C233.365 185.341 225.197 160.583 226.629 134.486L226.665 133.937C227.521 122.444 235.187 115.403 244.142 115.017ZM193.865 290.878C169.416 302.367 157.729 311.808 153.221 318.376C150.722 322.017 150.79 324.211 151.206 325.27C151.621 326.325 152.818 327.348 155.056 327.699L155.46 327.754C159.678 328.223 165.091 325.852 172.429 318.537C178.56 312.425 185.597 303.297 193.865 290.878ZM335.011 256.679C326.174 255.531 314.246 256.363 300.413 258.432C316.97 269.373 329.558 273.804 337.996 274.441C342.716 274.797 345.858 273.95 347.718 272.72C349.447 271.575 350.279 269.975 350.295 267.99C350.136 264.638 348.805 262.292 346.475 260.539C343.992 258.671 340.194 257.352 335.011 256.679ZM252.158 218.735C245.406 238.083 238.981 253.035 234.854 261.77C253.014 256.371 267.967 252.919 276.558 251.205C266.315 239.103 257.43 226.638 252.158 218.735ZM247.421 128.719C246.398 127.634 245.014 127.142 242.933 127.432C241.563 127.673 240.028 128.896 238.837 132.346C237.662 135.748 237.115 140.601 237.302 146.419C237.598 155.669 239.728 166.807 243.476 177.261C249.032 157.83 250.767 144.911 250.095 136.949C249.713 132.434 248.594 129.964 247.421 128.719Z" fill="#FF2116"/>
</svg>
